<svg width="29" height="30" viewBox="0 0 29 30" fill="currentColor" xmlns="http://www.w3.org/2000/svg">
<g clip-path="url(#clip0_5_31)">
<path d="M21.6904 4.39529C23.535 5.68422 24.9591 7.20258 26.0699 9.1703C26.1318 9.27939 26.1938 9.38848 26.2577 9.50088C27.8361 12.4611 28.0877 15.9333 27.19 19.1415C26.544 21.2573 25.5082 23.0305 23.9738 24.6288C23.8603 24.7477 23.7468 24.8666 23.6299 24.9891C23.2333 25.3648 22.8203 25.7189 22.4017 26.0699C22.5134 26.2392 22.6254 26.4084 22.7374 26.5775C22.808 26.6849 22.8786 26.7923 22.9513 26.903C23.1104 27.1356 23.2764 27.3636 23.4487 27.5866C24.101 28.4406 24.101 28.4406 24.1212 29.0748C23.8997 29.6776 23.8997 29.6776 23.5808 29.869C23.1386 30 23.1386 30 22.6637 30C22.0964 29.517 21.6786 28.9233 21.2473 28.3215C21.1815 28.2307 21.1157 28.14 21.0479 28.0464C20.8873 27.8246 20.7274 27.6023 20.5677 27.3799C20.3448 27.4569 20.3448 27.4569 20.1173 27.5355C16.34 28.7886 12.6624 29.2981 8.92262 27.5002C8.63645 27.3538 8.63645 27.3538 8.25327 27.3799C8.05552 27.5988 8.05552 27.5988 7.88021 27.8911C7.81174 27.9969 7.74326 28.1027 7.6727 28.2117C7.6022 28.3236 7.5317 28.4355 7.45906 28.5508C7.31886 28.7706 7.17816 28.9902 7.03687 29.2094C6.94389 29.3565 6.94389 29.3565 6.84903 29.5066C6.68122 29.738 6.68122 29.738 6.41921 29.869C5.48366 29.9595 5.48366 29.9595 5.03547 29.5988C4.78343 29.0838 4.84223 28.8531 4.97816 28.2969C5.19065 27.9108 5.44445 27.5615 5.70687 27.208C5.84128 27.0233 5.97521 26.8382 6.10858 26.6527C6.16812 26.5721 6.22766 26.4915 6.289 26.4085C6.44241 26.2047 6.44241 26.2047 6.41921 25.9389C6.22485 25.7423 6.22485 25.7423 5.96888 25.5377C4.15544 23.9792 2.93234 22.2869 2.09606 20.0437C2.04506 19.9118 1.99407 19.7799 1.94152 19.644C1.33635 17.9765 1.25503 16.2943 1.31004 14.5415C1.3124 14.4179 1.31477 14.2942 1.3172 14.1669C1.44909 11.6067 2.69545 9.00506 4.32314 7.07423C4.42108 6.95348 4.51903 6.83274 4.61995 6.70834C6.57017 4.41909 9.26312 3.06626 12.1834 2.48908C12.3393 2.45467 12.3393 2.45467 12.4984 2.41958C15.5594 1.86584 19.1136 2.68956 21.6904 4.39529ZM6.18637 8.04039C4.05838 10.5536 3.17011 13.4858 3.40611 16.7686C3.79045 19.7688 5.34553 22.4415 7.69906 24.3207C10.2193 26.1553 13.1243 26.9347 16.2195 26.5284C19.07 25.9691 21.6796 24.4676 23.4498 22.1397C25.1745 19.5289 26.0279 16.549 25.4517 13.4182C24.9468 11.1416 23.8984 9.25552 22.2707 7.59825C22.1741 7.49844 22.0775 7.39864 21.978 7.29581C19.6734 5.0647 16.7604 4.37758 13.6418 4.41883C10.7818 4.5078 8.1401 5.99801 6.18637 8.04039Z" fill="currentColor"/>
<path d="M15.0655 7.46725C15.3753 7.74663 15.5636 7.97071 15.6352 8.38936C15.6519 8.71628 15.6517 9.03952 15.6463 9.36681C15.6476 9.61245 15.6489 9.85808 15.6502 10.1037C15.649 10.4892 15.6468 10.8747 15.6439 11.2602C15.642 11.6335 15.644 12.0066 15.6463 12.3799C15.6442 12.4948 15.642 12.6097 15.6398 12.7281C15.6446 13.3197 15.6577 13.5475 16.0445 14.0216C16.1537 14.1067 16.263 14.1918 16.3755 14.2795C16.4404 14.3443 16.4404 14.3443 16.5066 14.4105C16.8304 14.425 17.1513 14.4316 17.4753 14.4335C17.6754 14.4365 17.8756 14.4397 18.0758 14.443C18.3923 14.4476 18.7088 14.4514 19.0253 14.4532C19.3302 14.4552 19.6349 14.4605 19.9398 14.4663C20.0341 14.466 20.1284 14.4658 20.2256 14.4655C20.6706 14.4763 20.9201 14.5113 21.2814 14.78C21.4847 15.0655 21.4847 15.0655 21.5666 15.5158C21.476 16.0324 21.339 16.1867 20.932 16.5038C20.5315 16.7334 20.1625 16.7104 19.7085 16.7025C19.5182 16.7028 19.3279 16.703 19.1376 16.7033C18.8413 16.6997 18.5449 16.6949 18.2486 16.6893C16.9398 16.6164 16.9398 16.6164 15.806 17.158C15.745 17.2288 15.684 17.2995 15.6212 17.3724C15.3787 17.6439 15.12 17.6799 14.7682 17.7168C14.0068 17.739 13.5642 17.6855 12.9694 17.1616C12.3774 16.5056 12.2683 16.0024 12.2771 15.1407C12.3362 14.6066 12.5205 14.3192 12.8384 13.8865C12.9298 13.8392 13.0212 13.7919 13.1153 13.7431C13.4696 13.3852 13.4229 13.0931 13.425 12.6035C13.4231 12.4839 13.4212 12.3644 13.4193 12.2412C13.4205 11.9882 13.4218 11.7351 13.4231 11.4821C13.422 11.083 13.4198 10.684 13.4169 10.285C13.415 9.89988 13.4169 9.51496 13.4193 9.12988C13.4171 9.0106 13.4149 8.89131 13.4127 8.76842C13.4192 7.94376 13.4192 7.94376 13.7964 7.51941C14.2849 7.26525 14.5442 7.30612 15.0655 7.46725Z" fill="currentColor"/>
<path d="M26.9787 1.16514C27.5084 1.62205 27.934 2.1065 28.2969 2.70444C28.3511 2.79056 28.4054 2.87669 28.4612 2.96542C29.1712 4.35569 29.0051 6.33597 28.5589 7.78905C28.4757 8.01711 28.3901 8.24444 28.2969 8.46863C27.6354 7.93378 27.0771 7.35684 26.5141 6.72003C25.6839 5.79904 24.795 4.93904 23.8428 4.14549C23.7702 4.08486 23.6976 4.02424 23.6227 3.96177C22.4227 2.96338 21.1962 2.02085 19.9127 1.13239C20.2183 0.826783 20.4573 0.745729 20.8624 0.600182C20.9847 0.55543 21.107 0.510679 21.2329 0.464572C23.0791 -0.105553 25.3897 0.00974352 26.9787 1.16514Z" fill="currentColor"/>
<path d="M1.96528 1.16514C1.43562 1.62205 1.01 2.1065 0.647047 2.70444C0.592839 2.79056 0.538631 2.87669 0.48278 2.96542C-0.227196 4.35569 -0.061081 6.33597 0.385038 7.78905C0.468286 8.01711 0.553876 8.24444 0.647047 8.46863C1.30857 7.93378 1.86686 7.35684 2.42993 6.72003C3.26005 5.79904 4.14894 4.93904 5.1012 4.14549C5.17381 4.08486 5.24643 4.02424 5.32124 3.96177C6.52131 2.96338 7.74777 2.02085 9.03133 1.13239C8.72572 0.826783 8.48664 0.745729 8.08154 0.600182C7.95928 0.55543 7.83702 0.510679 7.71105 0.464572C5.86493 -0.105553 3.55428 0.00974352 1.96528 1.16514Z" fill="currentColor"/>
</g>
<defs>
<clipPath id="clip0_5_31">
<rect width="28.952" height="30" fill="currentColor"/>
</clipPath>
</defs>
</svg>
